<svg width="638" height="638" viewBox="0 0 638 638" fill="none" xmlns="http://www.w3.org/2000/svg">
<circle cx="319.24" cy="318.742" r="318.495" fill="#00CDE8"/>
<path d="M319.242 86.8388C333.721 86.8388 346.084 95.8843 350.995 108.632L489.492 162.087C498.069 165.397 503.726 173.643 503.726 182.837V416.553C503.726 422.639 501.816 428.282 499.751 432.768C497.569 437.511 494.55 442.376 490.926 447.253C483.67 457.019 473.122 467.989 459.188 479.574C431.253 502.799 388.504 529.494 327.761 554.64C322.316 556.893 316.169 556.893 310.724 554.64C249.981 529.494 207.232 502.799 179.297 479.574C165.363 467.989 154.815 457.019 147.559 447.253C143.935 442.376 140.916 437.511 138.734 432.768C136.669 428.282 134.76 422.639 134.76 416.553V237.306C134.76 221.427 150.919 210.663 165.572 216.78L281.488 265.172C291.012 255.253 304.407 249.079 319.243 249.079C348.147 249.079 371.578 272.511 371.578 301.415C371.578 330.319 348.147 353.75 319.243 353.75C290.408 353.75 267.02 330.43 266.909 301.621L174.011 262.839V415.46C174.091 415.673 174.213 415.971 174.391 416.358C175.148 418.002 176.592 420.515 179.066 423.844C184.004 430.49 192.185 439.244 204.391 449.392C227.813 468.865 264.962 492.561 319.242 515.647C373.524 492.561 410.672 468.865 434.094 449.392C446.3 439.244 454.481 430.49 459.419 423.844C461.892 420.515 463.337 418.002 464.094 416.358C464.272 415.971 464.394 415.673 464.474 415.46V194.504L341.128 146.896C335.212 151.874 327.579 154.875 319.242 154.875C300.455 154.875 285.225 139.644 285.225 120.856C285.225 102.069 300.455 86.8389 319.242 86.8388ZM319.243 272.63C303.346 272.63 290.459 285.517 290.458 301.414C290.459 317.311 303.346 330.199 319.243 330.199C335.14 330.199 348.027 317.311 348.028 301.414C348.027 285.517 335.14 272.63 319.243 272.63Z" fill="#002D3E"/>
</svg>
