<svg width="2810" height="337" viewBox="0 0 2810 337" fill="none" xmlns="http://www.w3.org/2000/svg">
<path d="M1.73005 43.0039L126.677 0.281861C127.212 0.0991463 127.792 0.0991462 128.326 0.281861L254.063 43.2739C254.625 43.4661 255.002 43.9948 255 44.5882L254.311 240.121C254.311 275.84 171.013 319.058 128.443 336.613C127.825 336.868 127.178 336.868 126.56 336.613C83.9906 319.058 0.692944 275.84 0.692944 240.121L0.00644679 45.4239C0.00259363 44.3311 0.696023 43.3575 1.73005 43.0039Z" fill="#00CDE8"/>
<path d="M127.502 44.9795C135.17 44.9795 141.717 49.7639 144.318 56.5059L217.669 84.7773C222.211 86.5283 225.206 90.8897 225.206 95.752V219.361C225.206 222.58 224.195 225.565 223.102 227.938C221.946 230.446 220.347 233.019 218.428 235.599C214.585 240.763 208.999 246.566 201.619 252.693C186.825 264.977 164.184 279.095 132.014 292.394C129.13 293.586 125.874 293.586 122.99 292.394C90.8203 279.095 68.1794 264.977 53.3848 252.693C46.0051 246.566 40.4181 240.764 36.5752 235.599C34.6561 233.019 33.0572 230.446 31.9014 227.938C30.8078 225.565 29.7969 222.58 29.7969 219.361V124.56C29.7972 116.293 38.0888 110.648 45.75 113.56L46.1152 113.704L107.506 139.299C112.55 134.052 119.644 130.786 127.502 130.786C142.81 130.786 155.22 143.179 155.22 158.466C155.22 173.753 142.81 186.146 127.502 186.146C112.23 186.146 99.844 173.812 99.7852 158.575L50.585 138.063V218.779C50.6274 218.892 50.6909 219.052 50.7861 219.259C51.1869 220.128 51.9519 221.457 53.2617 223.218C55.8771 226.733 60.2106 231.362 66.6748 236.729C79.0797 247.029 98.7542 259.56 127.502 271.771C156.25 259.56 175.924 247.029 188.329 236.729C194.793 231.363 199.126 226.733 201.741 223.218C203.051 221.457 203.816 220.128 204.217 219.259C204.312 219.052 204.376 218.892 204.419 218.779V101.923L139.092 76.7441C135.959 79.376 131.916 80.9629 127.502 80.9629C117.552 80.9629 109.486 72.9081 109.485 62.9717C109.485 53.0351 117.552 44.9795 127.502 44.9795ZM127.502 143.242C119.083 143.242 112.257 150.058 112.257 158.466C112.257 166.874 119.083 173.69 127.502 173.69C135.921 173.69 142.747 166.874 142.747 158.466C142.747 150.058 135.921 143.242 127.502 143.242Z" fill="#002D3E"/>
<mask id="path-3-outside-1_1204_2" maskUnits="userSpaceOnUse" x="326.818" y="46" width="1457" height="244" fill="black">
<rect fill="white" x="326.818" y="46" width="1457" height="244"/>
<path d="M652.066 50.3979C659.169 50.3979 665.222 52.6989 670.224 57.3009C675.326 61.9029 677.877 67.4553 677.877 73.9581V262.44C677.877 269.043 675.326 274.645 670.224 279.247C665.222 283.749 659.169 286 652.066 286C644.863 286 638.71 283.749 633.608 279.247C628.606 274.645 626.105 269.043 626.105 262.44V146.44L532.915 263.19C525.912 271.794 516.457 276.096 504.552 276.096C492.747 276.096 483.443 271.794 476.64 263.19L383.3 146.44V262.44C383.3 269.043 380.749 274.645 375.646 279.247C370.644 283.749 364.542 286 357.339 286C350.135 286 343.983 283.749 338.881 279.247C333.878 274.645 331.377 269.043 331.377 262.44V73.9581C331.377 67.4553 333.878 61.9029 338.881 57.3009C343.983 52.6989 350.135 50.3979 357.339 50.3979C366.042 50.3979 373.045 53.6493 378.348 60.1522L378.498 60.3022L504.552 218.171L630.907 60.3022L631.057 60.1522C636.259 53.6493 643.262 50.3979 652.066 50.3979ZM743.603 50.3979C750.807 50.3979 756.909 52.6989 761.911 57.3009C767.014 61.9029 769.565 67.4553 769.565 73.9581V262.44C769.565 269.043 767.014 274.645 761.911 279.247C756.909 283.749 750.807 286 743.603 286C736.4 286 730.248 283.749 725.145 279.247C720.143 274.645 717.642 269.043 717.642 262.44V73.9581C717.642 67.4553 720.143 61.9029 725.145 57.3009C730.248 52.6989 736.4 50.3979 743.603 50.3979ZM861.426 50.3979H1044.81C1060.11 50.3979 1073.47 54.9499 1084.87 64.0538C1096.38 73.0578 1103.28 84.2126 1105.58 97.5184H861.426V238.88H1105.58C1103.28 252.285 1096.38 263.49 1084.87 272.494C1073.47 281.498 1060.11 286 1044.81 286H861.426C847.019 286 834.714 281.448 824.51 272.344C814.405 263.14 809.253 251.985 809.053 238.88V97.5184C809.253 84.5127 814.405 73.4079 824.51 64.2039C834.714 54.9999 847.019 50.3979 861.426 50.3979ZM1197.12 97.5184V262.44C1197.12 269.043 1194.57 274.645 1189.47 279.247C1184.47 283.749 1178.36 286 1171.16 286C1163.96 286 1157.8 283.749 1152.7 279.247C1147.7 274.645 1145.2 269.043 1145.2 262.44V97.5184C1145.2 84.6128 1150.25 73.558 1160.36 64.354C1170.46 55.05 1182.71 50.3979 1197.12 50.3979H1390.7C1404.91 50.3979 1417.12 55.05 1427.32 64.354C1437.53 73.558 1442.63 84.6128 1442.63 97.5184V144.639C1442.63 157.644 1437.53 168.749 1427.32 177.953C1417.12 187.157 1404.91 191.759 1390.7 191.759H1386.95L1436.77 247.583C1440.68 251.885 1442.63 256.837 1442.63 262.44C1442.63 269.043 1440.03 274.645 1434.82 279.247C1429.72 283.749 1423.67 286 1416.67 286C1408.56 286 1401.86 283.099 1396.56 277.296L1320.17 191.759H1264.5C1250.19 191.759 1237.94 187.157 1227.73 177.953C1217.63 168.749 1212.58 157.644 1212.58 144.639H1390.7V97.5184H1197.12ZM1482.22 97.5184C1482.22 84.6128 1487.28 73.558 1497.38 64.354C1507.48 55.05 1519.74 50.3979 1534.15 50.3979H1727.73C1741.94 50.3979 1754.14 55.05 1764.35 64.354C1774.55 73.558 1779.65 84.6128 1779.65 97.5184V238.88C1779.65 251.885 1774.55 262.99 1764.35 272.194C1754.14 281.398 1741.94 286 1727.73 286H1534.15C1519.74 286 1507.48 281.398 1497.38 272.194C1487.28 262.99 1482.22 251.885 1482.22 238.88V97.5184ZM1534.15 97.5184V238.88H1727.73V97.5184H1534.15Z"/>
</mask>
<path d="M652.066 50.3979C659.169 50.3979 665.222 52.6989 670.224 57.3009C675.326 61.9029 677.877 67.4553 677.877 73.9581V262.44C677.877 269.043 675.326 274.645 670.224 279.247C665.222 283.749 659.169 286 652.066 286C644.863 286 638.71 283.749 633.608 279.247C628.606 274.645 626.105 269.043 626.105 262.44V146.44L532.915 263.19C525.912 271.794 516.457 276.096 504.552 276.096C492.747 276.096 483.443 271.794 476.64 263.19L383.3 146.44V262.44C383.3 269.043 380.749 274.645 375.646 279.247C370.644 283.749 364.542 286 357.339 286C350.135 286 343.983 283.749 338.881 279.247C333.878 274.645 331.377 269.043 331.377 262.44V73.9581C331.377 67.4553 333.878 61.9029 338.881 57.3009C343.983 52.6989 350.135 50.3979 357.339 50.3979C366.042 50.3979 373.045 53.6493 378.348 60.1522L378.498 60.3022L504.552 218.171L630.907 60.3022L631.057 60.1522C636.259 53.6493 643.262 50.3979 652.066 50.3979ZM743.603 50.3979C750.807 50.3979 756.909 52.6989 761.911 57.3009C767.014 61.9029 769.565 67.4553 769.565 73.9581V262.44C769.565 269.043 767.014 274.645 761.911 279.247C756.909 283.749 750.807 286 743.603 286C736.4 286 730.248 283.749 725.145 279.247C720.143 274.645 717.642 269.043 717.642 262.44V73.9581C717.642 67.4553 720.143 61.9029 725.145 57.3009C730.248 52.6989 736.4 50.3979 743.603 50.3979ZM861.426 50.3979H1044.81C1060.11 50.3979 1073.47 54.9499 1084.87 64.0538C1096.38 73.0578 1103.28 84.2126 1105.58 97.5184H861.426V238.88H1105.58C1103.28 252.285 1096.38 263.49 1084.87 272.494C1073.47 281.498 1060.11 286 1044.81 286H861.426C847.019 286 834.714 281.448 824.51 272.344C814.405 263.14 809.253 251.985 809.053 238.88V97.5184C809.253 84.5127 814.405 73.4079 824.51 64.2039C834.714 54.9999 847.019 50.3979 861.426 50.3979ZM1197.12 97.5184V262.44C1197.12 269.043 1194.57 274.645 1189.47 279.247C1184.47 283.749 1178.36 286 1171.16 286C1163.96 286 1157.8 283.749 1152.7 279.247C1147.7 274.645 1145.2 269.043 1145.2 262.44V97.5184C1145.2 84.6128 1150.25 73.558 1160.36 64.354C1170.46 55.05 1182.71 50.3979 1197.12 50.3979H1390.7C1404.91 50.3979 1417.12 55.05 1427.32 64.354C1437.53 73.558 1442.63 84.6128 1442.63 97.5184V144.639C1442.63 157.644 1437.53 168.749 1427.32 177.953C1417.12 187.157 1404.91 191.759 1390.7 191.759H1386.95L1436.77 247.583C1440.68 251.885 1442.63 256.837 1442.63 262.44C1442.63 269.043 1440.03 274.645 1434.82 279.247C1429.72 283.749 1423.67 286 1416.67 286C1408.56 286 1401.86 283.099 1396.56 277.296L1320.17 191.759H1264.5C1250.19 191.759 1237.94 187.157 1227.73 177.953C1217.63 168.749 1212.58 157.644 1212.58 144.639H1390.7V97.5184H1197.12ZM1482.22 97.5184C1482.22 84.6128 1487.28 73.558 1497.38 64.354C1507.48 55.05 1519.74 50.3979 1534.15 50.3979H1727.73C1741.94 50.3979 1754.14 55.05 1764.35 64.354C1774.55 73.558 1779.65 84.6128 1779.65 97.5184V238.88C1779.65 251.885 1774.55 262.99 1764.35 272.194C1754.14 281.398 1741.94 286 1727.73 286H1534.15C1519.74 286 1507.48 281.398 1497.38 272.194C1487.28 262.99 1482.22 251.885 1482.22 238.88V97.5184ZM1534.15 97.5184V238.88H1727.73V97.5184H1534.15Z" fill="#EEEEEE"/>
<path d="M670.224 57.3009L667.624 60.1271L667.638 60.1399L667.652 60.1526L670.224 57.3009ZM670.224 279.247L672.793 282.102L672.796 282.099L670.224 279.247ZM633.608 279.247L631.008 282.073L631.037 282.1L631.067 282.127L633.608 279.247ZM626.105 146.44H629.945V135.473L623.104 144.044L626.105 146.44ZM532.915 263.19L535.893 265.614L535.904 265.6L535.916 265.586L532.915 263.19ZM476.64 263.19L479.653 260.808L479.646 260.8L479.64 260.792L476.64 263.19ZM383.3 146.44L386.299 144.041L379.46 135.486V146.44H383.3ZM375.646 279.247L378.215 282.102L378.219 282.099L375.646 279.247ZM338.881 279.247L336.28 282.073L336.31 282.1L336.34 282.127L338.881 279.247ZM338.881 57.3009L336.308 54.4493L336.294 54.462L336.28 54.4748L338.881 57.3009ZM378.348 60.1522L375.371 62.579L375.494 62.7299L375.632 62.8676L378.348 60.1522ZM378.498 60.3022L381.499 57.906L381.365 57.7384L381.213 57.5868L378.498 60.3022ZM504.552 218.171L501.551 220.567L504.549 224.321L507.55 220.57L504.552 218.171ZM630.907 60.3022L628.191 57.5869L628.041 57.7369L627.909 57.9025L630.907 60.3022ZM631.057 60.1522L633.773 62.8675L633.923 62.7171L634.056 62.5511L631.057 60.1522ZM652.066 50.3979V54.2382C658.254 54.2382 663.365 56.2088 667.624 60.1271L670.224 57.3009L672.824 54.4748C667.079 49.189 660.085 46.5577 652.066 46.5577V50.3979ZM670.224 57.3009L667.652 60.1526C671.999 64.073 674.037 68.6102 674.037 73.9581H677.877H681.718C681.718 66.3005 678.654 59.7329 672.796 54.4493L670.224 57.3009ZM677.877 73.9581H674.037V262.44H677.877H681.718V73.9581H677.877ZM677.877 262.44H674.037C674.037 267.906 671.984 272.488 667.652 276.395L670.224 279.247L672.796 282.099C678.668 276.802 681.718 270.179 681.718 262.44H677.877ZM670.224 279.247L667.655 276.393C663.4 280.222 658.278 282.16 652.066 282.16V286V289.84C660.06 289.84 667.044 287.276 672.793 282.102L670.224 279.247ZM652.066 286V282.16C645.739 282.16 640.506 280.212 636.149 276.368L633.608 279.247L631.067 282.127C636.915 287.286 643.987 289.84 652.066 289.84V286ZM633.608 279.247L636.208 276.421C631.97 272.522 629.945 267.933 629.945 262.44H626.105H622.265C622.265 270.152 625.242 276.768 631.008 282.073L633.608 279.247ZM626.105 262.44H629.945V146.44H626.105H622.265V262.44H626.105ZM626.105 146.44L623.104 144.044L529.913 260.794L532.915 263.19L535.916 265.586L629.106 148.835L626.105 146.44ZM532.915 263.19L529.936 260.766C523.721 268.401 515.399 272.255 504.552 272.255V276.096V279.936C517.516 279.936 528.102 275.186 535.893 265.614L532.915 263.19ZM504.552 276.096V272.255C493.818 272.255 485.666 268.413 479.653 260.808L476.64 263.19L473.628 265.572C481.221 275.175 491.676 279.936 504.552 279.936V276.096ZM476.64 263.19L479.64 260.792L386.299 144.041L383.3 146.44L380.3 148.838L473.641 265.588L476.64 263.19ZM383.3 146.44H379.46V262.44H383.3H387.14V146.44H383.3ZM383.3 262.44H379.46C379.46 267.906 377.406 272.488 373.074 276.395L375.646 279.247L378.219 282.099C384.091 276.802 387.14 270.179 387.14 262.44H383.3ZM375.646 279.247L373.077 276.393C368.833 280.213 363.666 282.16 357.339 282.16V286V289.84C365.418 289.84 372.456 287.285 378.215 282.102L375.646 279.247ZM357.339 286V282.16C351.011 282.16 345.778 280.212 341.421 276.368L338.881 279.247L336.34 282.127C342.187 287.286 349.259 289.84 357.339 289.84V286ZM338.881 279.247L341.481 276.421C337.242 272.522 335.218 267.933 335.218 262.44H331.377H327.537C327.537 270.152 330.514 276.768 336.28 282.073L338.881 279.247ZM331.377 262.44H335.218V73.9581H331.377H327.537V262.44H331.377ZM331.377 73.9581H335.218C335.218 68.583 337.228 64.0391 341.481 60.1271L338.881 57.3009L336.28 54.4748C330.528 59.7668 327.537 66.3276 327.537 73.9581H331.377ZM338.881 57.3009L341.453 60.1526C345.813 56.2199 351.035 54.2382 357.339 54.2382V50.3979V46.5577C349.236 46.5577 342.153 49.178 336.308 54.4493L338.881 57.3009ZM357.339 50.3979V54.2382C364.938 54.2382 370.829 57.0085 375.371 62.579L378.348 60.1522L381.324 57.7254C375.261 50.2902 367.147 46.5577 357.339 46.5577V50.3979ZM378.348 60.1522L375.632 62.8676L375.782 63.0176L378.498 60.3022L381.213 57.5868L381.063 57.4367L378.348 60.1522ZM378.498 60.3022L375.497 62.6984L501.551 220.567L504.552 218.171L507.553 215.774L381.499 57.906L378.498 60.3022ZM504.552 218.171L507.55 220.57L633.905 62.7019L630.907 60.3022L627.909 57.9025L501.554 215.771L504.552 218.171ZM630.907 60.3022L633.623 63.0175L633.773 62.8675L631.057 60.1522L628.341 57.4369L628.191 57.5869L630.907 60.3022ZM631.057 60.1522L634.056 62.5511C638.483 57.0177 644.352 54.2382 652.066 54.2382V50.3979V46.5577C642.173 46.5577 634.036 50.281 628.058 57.7532L631.057 60.1522ZM761.911 57.3009L759.311 60.1271L759.325 60.1399L759.339 60.1526L761.911 57.3009ZM761.911 279.247L764.48 282.102L764.484 282.099L761.911 279.247ZM725.145 279.247L722.545 282.073L722.575 282.1L722.605 282.127L725.145 279.247ZM725.145 57.3009L722.573 54.4493L722.559 54.462L722.545 54.4748L725.145 57.3009ZM743.603 50.3979V54.2382C749.906 54.2382 755.063 56.2187 759.311 60.1271L761.911 57.3009L764.511 54.4748C758.755 49.1792 751.707 46.5577 743.603 46.5577V50.3979ZM761.911 57.3009L759.339 60.1526C763.686 64.073 765.724 68.6102 765.724 73.9581H769.565H773.405C773.405 66.3005 770.341 59.7329 764.484 54.4493L761.911 57.3009ZM769.565 73.9581H765.724V262.44H769.565H773.405V73.9581H769.565ZM769.565 262.44H765.724C765.724 267.906 763.671 272.488 759.339 276.395L761.911 279.247L764.484 282.099C770.356 276.802 773.405 270.179 773.405 262.44H769.565ZM761.911 279.247L759.342 276.393C755.098 280.213 749.931 282.16 743.603 282.16V286V289.84C751.683 289.84 758.721 287.285 764.48 282.102L761.911 279.247ZM743.603 286V282.16C737.276 282.16 732.043 280.212 727.686 276.368L725.145 279.247L722.605 282.127C728.452 287.286 735.524 289.84 743.603 289.84V286ZM725.145 279.247L727.746 276.421C723.507 272.522 721.482 267.933 721.482 262.44H717.642H713.802C713.802 270.152 716.779 276.768 722.545 282.073L725.145 279.247ZM717.642 262.44H721.482V73.9581H717.642H713.802V262.44H717.642ZM717.642 73.9581H721.482C721.482 68.583 723.493 64.0391 727.746 60.1271L725.145 57.3009L722.545 54.4748C716.793 59.7668 713.802 66.3276 713.802 73.9581H717.642ZM725.145 57.3009L727.718 60.1526C732.078 56.2199 737.3 54.2382 743.603 54.2382V50.3979V46.5577C735.501 46.5577 728.418 49.178 722.573 54.4493L725.145 57.3009ZM1084.87 64.0538L1082.48 67.0551L1082.49 67.0667L1082.51 67.0781L1084.87 64.0538ZM1105.58 97.5184V101.359H1110.14L1109.37 96.864L1105.58 97.5184ZM861.426 97.5184V93.6781H857.585V97.5184H861.426ZM861.426 238.88H857.585V242.72H861.426V238.88ZM1105.58 238.88L1109.37 239.529L1110.14 235.039H1105.58V238.88ZM1084.87 272.494L1082.51 269.47L1082.5 269.475L1082.49 269.48L1084.87 272.494ZM824.51 272.344L821.924 275.183L821.938 275.196L821.953 275.21L824.51 272.344ZM809.053 238.88H805.213V238.909L805.213 238.938L809.053 238.88ZM809.053 97.5184L805.213 97.4593L805.213 97.4888V97.5184H809.053ZM824.51 64.2039L821.938 61.3523L821.931 61.3586L821.924 61.3649L824.51 64.2039ZM861.426 50.3979V54.2382H1044.81V50.3979V46.5577H861.426V50.3979ZM1044.81 50.3979V54.2382C1059.29 54.2382 1071.79 58.5223 1082.48 67.0551L1084.87 64.0538L1087.27 61.0526C1075.15 51.3775 1060.94 46.5577 1044.81 46.5577V50.3979ZM1084.87 64.0538L1082.51 67.0781C1093.33 75.5473 1099.67 85.8857 1101.8 98.1727L1105.58 97.5184L1109.37 96.864C1106.89 82.5395 1099.43 70.5682 1087.24 61.0296L1084.87 64.0538ZM1105.58 97.5184V93.6781H861.426V97.5184V101.359H1105.58V97.5184ZM861.426 97.5184H857.585V238.88H861.426H865.266V97.5184H861.426ZM861.426 238.88V242.72H1105.58V238.88V235.039H861.426V238.88ZM1105.58 238.88L1101.8 238.23C1099.67 250.622 1093.32 261.006 1082.51 269.47L1084.87 272.494L1087.24 275.518C1099.43 265.974 1106.89 253.948 1109.37 239.529L1105.58 238.88ZM1084.87 272.494L1082.49 269.48C1071.8 277.919 1059.3 282.16 1044.81 282.16V286V289.84C1060.93 289.84 1075.13 285.077 1087.25 275.508L1084.87 272.494ZM1044.81 286V282.16H861.426V286V289.84H1044.81V286ZM861.426 286V282.16C847.907 282.16 836.527 277.919 827.066 269.479L824.51 272.344L821.953 275.21C832.901 284.977 846.132 289.84 861.426 289.84V286ZM824.51 272.344L827.096 269.505C817.737 260.981 813.076 250.816 812.893 238.821L809.053 238.88L805.213 238.938C805.43 253.154 811.073 265.3 821.924 275.183L824.51 272.344ZM809.053 238.88H812.893V97.5184H809.053H805.213V238.88H809.053ZM809.053 97.5184L812.893 97.5774C813.076 85.6908 817.73 75.5738 827.096 67.0429L824.51 64.2039L821.924 61.3649C811.08 71.242 805.43 83.3346 805.213 97.4593L809.053 97.5184ZM824.51 64.2039L827.082 67.0556C836.544 58.5209 847.919 54.2382 861.426 54.2382V50.3979V46.5577C846.12 46.5577 832.884 51.479 821.938 61.3523L824.51 64.2039ZM1197.12 97.5184V93.6781H1193.28V97.5184H1197.12ZM1189.47 279.247L1192.04 282.102L1192.04 282.099L1189.47 279.247ZM1152.7 279.247L1150.1 282.073L1150.13 282.1L1150.16 282.127L1152.7 279.247ZM1160.36 64.354L1162.94 67.193L1162.95 67.186L1162.96 67.179L1160.36 64.354ZM1427.32 64.354L1424.73 67.1917L1424.74 67.1987L1424.75 67.2056L1427.32 64.354ZM1427.32 177.953L1429.89 180.805L1429.89 180.805L1427.32 177.953ZM1386.95 191.759V187.919H1378.38L1384.09 194.316L1386.95 191.759ZM1436.77 247.583L1433.91 250.14L1433.92 250.152L1433.93 250.163L1436.77 247.583ZM1434.82 279.247L1437.36 282.127L1437.37 282.123L1434.82 279.247ZM1396.56 277.296L1393.69 279.854L1393.71 279.871L1393.72 279.887L1396.56 277.296ZM1320.17 191.759L1323.04 189.201L1321.89 187.919H1320.17V191.759ZM1227.73 177.953L1225.15 180.792L1225.16 180.799L1225.16 180.805L1227.73 177.953ZM1212.58 144.639V140.799H1208.74V144.639H1212.58ZM1390.7 144.639V148.479H1394.55V144.639H1390.7ZM1390.7 97.5184H1394.55V93.6781H1390.7V97.5184ZM1197.12 97.5184H1193.28V262.44H1197.12H1200.96V97.5184H1197.12ZM1197.12 262.44H1193.28C1193.28 267.906 1191.23 272.488 1186.9 276.395L1189.47 279.247L1192.04 282.099C1197.91 276.802 1200.96 270.179 1200.96 262.44H1197.12ZM1189.47 279.247L1186.9 276.393C1182.65 280.213 1177.49 282.16 1171.16 282.16V286V289.84C1179.24 289.84 1186.28 287.285 1192.04 282.102L1189.47 279.247ZM1171.16 286V282.16C1164.83 282.16 1159.6 280.212 1155.24 276.368L1152.7 279.247L1150.16 282.127C1156.01 287.286 1163.08 289.84 1171.16 289.84V286ZM1152.7 279.247L1155.3 276.421C1151.06 272.522 1149.04 267.933 1149.04 262.44H1145.2H1141.36C1141.36 270.152 1144.34 276.768 1150.1 282.073L1152.7 279.247ZM1145.2 262.44H1149.04V97.5184H1145.2H1141.36V262.44H1145.2ZM1145.2 97.5184H1149.04C1149.04 85.7633 1153.58 75.7177 1162.94 67.193L1160.36 64.354L1157.77 61.515C1146.92 71.3982 1141.36 83.4622 1141.36 97.5184H1145.2ZM1160.36 64.354L1162.96 67.179C1172.31 58.562 1183.63 54.2382 1197.12 54.2382V50.3979V46.5577C1181.8 46.5577 1168.6 51.5379 1157.75 61.5289L1160.36 64.354ZM1197.12 50.3979V54.2382H1390.7V50.3979V46.5577H1197.12V50.3979ZM1390.7 50.3979V54.2382C1403.98 54.2382 1415.26 58.5528 1424.73 67.1917L1427.32 64.354L1429.91 61.5162C1418.97 51.5471 1405.84 46.5577 1390.7 46.5577V50.3979ZM1427.32 64.354L1424.75 67.2056C1434.2 75.7346 1438.79 85.777 1438.79 97.5184H1442.63H1446.47C1446.47 83.4486 1440.85 71.3813 1429.89 61.5023L1427.32 64.354ZM1442.63 97.5184H1438.79V144.639H1442.63H1446.47V97.5184H1442.63ZM1442.63 144.639H1438.79C1438.79 156.49 1434.2 166.579 1424.75 175.102L1427.32 177.953L1429.89 180.805C1440.85 170.919 1446.47 158.799 1446.47 144.639H1442.63ZM1427.32 177.953L1424.75 175.102C1415.28 183.646 1404 187.919 1390.7 187.919V191.759V195.599C1405.83 195.599 1418.96 190.668 1429.89 180.805L1427.32 177.953ZM1390.7 191.759V187.919H1386.95V191.759V195.599H1390.7V191.759ZM1386.95 191.759L1384.09 194.316L1433.91 250.14L1436.77 247.583L1439.64 245.026L1389.82 189.202L1386.95 191.759ZM1436.77 247.583L1433.93 250.163C1437.22 253.787 1438.79 257.829 1438.79 262.44H1442.63H1446.47C1446.47 255.846 1444.14 249.983 1439.62 245.003L1436.77 247.583ZM1442.63 262.44H1438.79C1438.79 267.879 1436.71 272.455 1432.28 276.371L1434.82 279.247L1437.37 282.123C1443.35 276.835 1446.47 270.206 1446.47 262.44H1442.63ZM1434.82 279.247L1432.28 276.368C1427.9 280.231 1422.76 282.16 1416.67 282.16V286V289.84C1424.57 289.84 1431.54 287.267 1437.36 282.127L1434.82 279.247ZM1416.67 286V282.16C1409.6 282.16 1403.94 279.685 1399.39 274.706L1396.56 277.296L1393.72 279.887C1399.78 286.513 1407.52 289.84 1416.67 289.84V286ZM1396.56 277.296L1399.42 274.738L1323.04 189.201L1320.17 191.759L1317.31 194.317L1393.69 279.854L1396.56 277.296ZM1320.17 191.759V187.919H1264.5V191.759V195.599H1320.17V191.759ZM1264.5 191.759V187.919C1251.1 187.919 1239.77 183.641 1230.31 175.102L1227.73 177.953L1225.16 180.805C1236.1 190.673 1249.29 195.599 1264.5 195.599V191.759ZM1227.73 177.953L1230.32 175.114C1220.97 166.596 1216.42 156.503 1216.42 144.639H1212.58H1208.74C1208.74 158.786 1214.29 170.902 1225.15 180.792L1227.73 177.953ZM1212.58 144.639V148.479H1390.7V144.639V140.799H1212.58V144.639ZM1390.7 144.639H1394.55V97.5184H1390.7H1386.86V144.639H1390.7ZM1390.7 97.5184V93.6781H1197.12V97.5184V101.359H1390.7V97.5184ZM1497.38 64.354L1499.97 67.193L1499.97 67.186L1499.98 67.179L1497.38 64.354ZM1764.35 64.354L1761.76 67.1917L1761.77 67.1987L1761.77 67.2056L1764.35 64.354ZM1764.35 272.194L1766.92 275.046L1766.92 275.046L1764.35 272.194ZM1497.38 272.194L1494.79 275.033L1494.79 275.033L1497.38 272.194ZM1534.15 97.5184V93.6781H1530.31V97.5184H1534.15ZM1534.15 238.88H1530.31V242.72H1534.15V238.88ZM1727.73 238.88V242.72H1731.57V238.88H1727.73ZM1727.73 97.5184H1731.57V93.6781H1727.73V97.5184ZM1482.22 97.5184H1486.06C1486.06 85.7633 1490.61 75.7177 1499.97 67.193L1497.38 64.354L1494.79 61.515C1483.94 71.3982 1478.38 83.4622 1478.38 97.5184H1482.22ZM1497.38 64.354L1499.98 67.179C1509.34 58.562 1520.65 54.2382 1534.15 54.2382V50.3979V46.5577C1518.83 46.5577 1505.63 51.5379 1494.78 61.5289L1497.38 64.354ZM1534.15 50.3979V54.2382H1727.73V50.3979V46.5577H1534.15V50.3979ZM1727.73 50.3979V54.2382C1741.01 54.2382 1752.28 58.5528 1761.76 67.1917L1764.35 64.354L1766.93 61.5162C1756 51.5471 1742.86 46.5577 1727.73 46.5577V50.3979ZM1764.35 64.354L1761.77 67.2056C1771.23 75.7346 1775.81 85.777 1775.81 97.5184H1779.65H1783.49C1783.49 83.4486 1777.87 71.3813 1766.92 61.5023L1764.35 64.354ZM1779.65 97.5184H1775.81V238.88H1779.65H1783.49V97.5184H1779.65ZM1779.65 238.88H1775.81C1775.81 250.73 1771.22 260.82 1761.77 269.342L1764.35 272.194L1766.92 275.046C1777.88 265.16 1783.49 253.04 1783.49 238.88H1779.65ZM1764.35 272.194L1761.77 269.342C1752.3 277.887 1741.02 282.16 1727.73 282.16V286V289.84C1742.85 289.84 1755.98 284.909 1766.92 275.046L1764.35 272.194ZM1727.73 286V282.16H1534.15V286V289.84H1727.73V286ZM1534.15 286V282.16C1520.64 282.16 1509.32 277.878 1499.97 269.355L1497.38 272.194L1494.79 275.033C1505.65 284.918 1518.84 289.84 1534.15 289.84V286ZM1497.38 272.194L1499.97 269.355C1490.61 260.837 1486.06 250.744 1486.06 238.88H1482.22H1478.38C1478.38 253.027 1483.94 265.143 1494.79 275.033L1497.38 272.194ZM1482.22 238.88H1486.06V97.5184H1482.22H1478.38V238.88H1482.22ZM1534.15 97.5184H1530.31V238.88H1534.15H1537.99V97.5184H1534.15ZM1534.15 238.88V242.72H1727.73V238.88V235.039H1534.15V238.88ZM1727.73 238.88H1731.57V97.5184H1727.73H1723.89V238.88H1727.73ZM1727.73 97.5184V93.6781H1534.15V97.5184V101.359H1727.73V97.5184Z" fill="#EEEEEE" mask="url(#path-3-outside-1_1204_2)"/>
<mask id="path-5-outside-2_1204_2" maskUnits="userSpaceOnUse" x="1815.55" y="46" width="979" height="244" fill="black">
<rect fill="white" x="1815.55" y="46" width="979" height="244"/>
<path d="M1897.4 50.3979H2065.62C2079.82 50.3979 2092.03 55.05 2102.23 64.354C2112.44 73.558 2117.54 84.6128 2117.54 97.5184H1897.4C1890.39 97.5184 1884.39 99.9194 1879.39 104.721C1874.49 109.424 1872.03 114.926 1872.03 121.229C1872.03 127.631 1874.49 133.134 1879.39 137.736C1884.39 142.338 1890.39 144.639 1897.4 144.639H2040.26C2061.47 144.639 2079.62 151.492 2094.73 165.198C2109.94 178.904 2117.54 195.461 2117.54 214.869C2117.54 234.278 2109.94 250.835 2094.73 264.541C2079.62 278.247 2061.47 285.1 2040.26 285.1V286H1872.03C1857.73 286 1845.47 281.398 1835.27 272.194C1825.16 262.99 1820.11 251.885 1820.11 238.88H2040.26C2047.16 238.88 2053.11 236.579 2058.11 231.977C2063.12 227.275 2065.62 221.722 2065.62 215.319C2065.62 209.017 2063.12 203.514 2058.11 198.812C2053.11 194.11 2047.16 191.759 2040.26 191.759V190.859H1897.4C1876.09 190.859 1857.88 184.006 1842.77 170.3C1827.66 156.594 1820.11 140.037 1820.11 120.628C1820.11 101.32 1827.66 84.8128 1842.77 71.1069C1857.88 57.3009 1876.09 50.3979 1897.4 50.3979ZM2209.51 50.3979H2392.89C2408.2 50.3979 2421.55 54.9499 2432.96 64.0538C2444.46 73.0578 2451.36 84.2126 2453.67 97.5184H2209.51V144.639H2387.49C2387.49 157.644 2382.43 168.749 2372.33 177.953C2362.23 187.157 2350.02 191.759 2335.71 191.759H2209.51V238.88H2453.67C2451.36 252.285 2444.46 263.49 2432.96 272.494C2421.55 281.498 2408.2 286 2392.89 286H2209.51C2195.1 286 2182.8 281.448 2172.59 272.344C2162.49 263.14 2157.34 251.985 2157.14 238.88V97.5184C2157.34 84.5127 2162.49 73.4079 2172.59 64.2039C2182.8 54.9999 2195.1 50.3979 2209.51 50.3979ZM2545.65 50.3979H2729.03C2744.34 50.3979 2757.7 54.9499 2769.1 64.0538C2780.61 73.0578 2787.51 84.2126 2789.81 97.5184H2545.65V238.88H2789.81C2787.51 252.285 2780.61 263.49 2769.1 272.494C2757.7 281.498 2744.34 286 2729.03 286H2545.65C2531.25 286 2518.94 281.448 2508.74 272.344C2498.63 263.14 2493.48 251.985 2493.28 238.88V97.5184C2493.48 84.5127 2498.63 73.4079 2508.74 64.2039C2518.94 54.9999 2531.25 50.3979 2545.65 50.3979Z"/>
</mask>
<path d="M1897.4 50.3979H2065.62C2079.82 50.3979 2092.03 55.05 2102.23 64.354C2112.44 73.558 2117.54 84.6128 2117.54 97.5184H1897.4C1890.39 97.5184 1884.39 99.9194 1879.39 104.721C1874.49 109.424 1872.03 114.926 1872.03 121.229C1872.03 127.631 1874.49 133.134 1879.39 137.736C1884.39 142.338 1890.39 144.639 1897.4 144.639H2040.26C2061.47 144.639 2079.62 151.492 2094.73 165.198C2109.94 178.904 2117.54 195.461 2117.54 214.869C2117.54 234.278 2109.94 250.835 2094.73 264.541C2079.62 278.247 2061.47 285.1 2040.26 285.1V286H1872.03C1857.73 286 1845.47 281.398 1835.27 272.194C1825.16 262.99 1820.11 251.885 1820.11 238.88H2040.26C2047.16 238.88 2053.11 236.579 2058.11 231.977C2063.12 227.275 2065.62 221.722 2065.62 215.319C2065.62 209.017 2063.12 203.514 2058.11 198.812C2053.11 194.11 2047.16 191.759 2040.26 191.759V190.859H1897.4C1876.09 190.859 1857.88 184.006 1842.77 170.3C1827.66 156.594 1820.11 140.037 1820.11 120.628C1820.11 101.32 1827.66 84.8128 1842.77 71.1069C1857.88 57.3009 1876.09 50.3979 1897.4 50.3979ZM2209.51 50.3979H2392.89C2408.2 50.3979 2421.55 54.9499 2432.96 64.0538C2444.46 73.0578 2451.36 84.2126 2453.67 97.5184H2209.51V144.639H2387.49C2387.49 157.644 2382.43 168.749 2372.33 177.953C2362.23 187.157 2350.02 191.759 2335.71 191.759H2209.51V238.88H2453.67C2451.36 252.285 2444.46 263.49 2432.96 272.494C2421.55 281.498 2408.2 286 2392.89 286H2209.51C2195.1 286 2182.8 281.448 2172.59 272.344C2162.49 263.14 2157.34 251.985 2157.14 238.88V97.5184C2157.34 84.5127 2162.49 73.4079 2172.59 64.2039C2182.8 54.9999 2195.1 50.3979 2209.51 50.3979ZM2545.65 50.3979H2729.03C2744.34 50.3979 2757.7 54.9499 2769.1 64.0538C2780.61 73.0578 2787.51 84.2126 2789.81 97.5184H2545.65V238.88H2789.81C2787.51 252.285 2780.61 263.49 2769.1 272.494C2757.7 281.498 2744.34 286 2729.03 286H2545.65C2531.25 286 2518.94 281.448 2508.74 272.344C2498.63 263.14 2493.48 251.985 2493.28 238.88V97.5184C2493.48 84.5127 2498.63 73.4079 2508.74 64.2039C2518.94 54.9999 2531.25 50.3979 2545.65 50.3979Z" fill="#00CDE8"/>
<path d="M2102.23 64.354L2099.65 67.1917L2099.65 67.1987L2099.66 67.2056L2102.23 64.354ZM2117.54 97.5184V101.359H2121.38V97.5184H2117.54ZM1879.39 104.721L1882.05 107.493L1882.05 107.492L1879.39 104.721ZM1879.39 137.736L1876.76 140.536L1876.77 140.549L1876.79 140.562L1879.39 137.736ZM2094.73 165.198L2092.15 168.042L2092.16 168.05L2094.73 165.198ZM2094.73 264.541L2092.16 261.688L2092.15 261.697L2094.73 264.541ZM2040.26 285.1V281.259H2036.42V285.1H2040.26ZM2040.26 286V289.84H2044.1V286H2040.26ZM1835.27 272.194L1832.68 275.033L1832.69 275.039L1832.7 275.046L1835.27 272.194ZM1820.11 238.88V235.039H1816.27V238.88H1820.11ZM2058.11 231.977L2060.71 234.803L2060.73 234.789L2060.74 234.775L2058.11 231.977ZM2058.11 198.812L2055.48 201.61L2055.48 201.61L2058.11 198.812ZM2040.26 191.759H2036.42V195.599H2040.26V191.759ZM2040.26 190.859H2044.1V187.019H2040.26V190.859ZM1842.77 170.3L1845.35 167.456L1845.35 167.456L1842.77 170.3ZM1842.77 71.1069L1845.35 73.951L1845.36 73.9417L1842.77 71.1069ZM1897.4 50.3979V54.2382H2065.62V50.3979V46.5577H1897.4V50.3979ZM2065.62 50.3979V54.2382C2078.9 54.2382 2090.17 58.5528 2099.65 67.1917L2102.23 64.354L2104.82 61.5162C2093.89 51.5471 2080.75 46.5577 2065.62 46.5577V50.3979ZM2102.23 64.354L2099.66 67.2056C2109.12 75.7346 2113.7 85.777 2113.7 97.5184H2117.54H2121.38C2121.38 83.4486 2115.76 71.3813 2104.81 61.5023L2102.23 64.354ZM2117.54 97.5184V93.6781H1897.4V97.5184V101.359H2117.54V97.5184ZM1897.4 97.5184V93.6781C1889.41 93.6781 1882.45 96.4549 1876.73 101.951L1879.39 104.721L1882.05 107.492C1886.33 103.384 1891.37 101.359 1897.4 101.359V97.5184ZM1879.39 104.721L1876.73 101.95C1871.14 107.314 1868.19 113.793 1868.19 121.229H1872.03H1875.87C1875.87 116.059 1877.83 111.533 1882.05 107.493L1879.39 104.721ZM1872.03 121.229H1868.19C1868.19 128.75 1871.13 135.249 1876.76 140.536L1879.39 137.736L1882.02 134.936C1877.84 131.019 1875.87 126.512 1875.87 121.229H1872.03ZM1879.39 137.736L1876.79 140.562C1882.52 145.838 1889.46 148.479 1897.4 148.479V144.639V140.799C1891.32 140.799 1886.26 138.838 1881.99 134.91L1879.39 137.736ZM1897.4 144.639V148.479H2040.26V144.639V140.799H1897.4V144.639ZM2040.26 144.639V148.479C2060.55 148.479 2077.78 155.004 2092.15 168.042L2094.73 165.198L2097.31 162.354C2081.47 147.979 2062.38 140.799 2040.26 140.799V144.639ZM2094.73 165.198L2092.16 168.05C2106.61 181.073 2113.7 196.614 2113.7 214.869H2117.54H2121.38C2121.38 194.307 2113.27 176.734 2097.3 162.345L2094.73 165.198ZM2117.54 214.869H2113.7C2113.7 233.124 2106.61 248.665 2092.16 261.688L2094.73 264.541L2097.3 267.393C2113.27 253.004 2121.38 235.431 2121.38 214.869H2117.54ZM2094.73 264.541L2092.15 261.697C2077.78 274.734 2060.55 281.259 2040.26 281.259V285.1V288.94C2062.38 288.94 2081.47 281.759 2097.31 267.385L2094.73 264.541ZM2040.26 285.1H2036.42V286H2040.26H2044.1V285.1H2040.26ZM2040.26 286V282.16H1872.03V286V289.84H2040.26V286ZM1872.03 286V282.16C1858.64 282.16 1847.31 277.882 1837.84 269.342L1835.27 272.194L1832.7 275.046C1843.64 284.914 1856.82 289.84 1872.03 289.84V286ZM1835.27 272.194L1837.85 269.355C1828.5 260.837 1823.95 250.744 1823.95 238.88H1820.11H1816.27C1816.27 253.027 1821.82 265.143 1832.68 275.033L1835.27 272.194ZM1820.11 238.88V242.72H2040.26V238.88V235.039H1820.11V238.88ZM2040.26 238.88V242.72C2048.11 242.72 2054.99 240.068 2060.71 234.803L2058.11 231.977L2055.51 229.15C2051.23 233.089 2046.21 235.039 2040.26 235.039V238.88ZM2058.11 231.977L2060.74 234.775C2066.46 229.405 2069.46 222.864 2069.46 215.319H2065.62H2061.78C2061.78 220.58 2059.78 225.144 2055.48 229.178L2058.11 231.977ZM2065.62 215.319H2069.46C2069.46 207.856 2066.44 201.37 2060.74 196.014L2058.11 198.812L2055.48 201.61C2059.79 205.659 2061.78 210.177 2061.78 215.319H2065.62ZM2058.11 198.812L2060.74 196.014C2055.03 190.639 2048.13 187.919 2040.26 187.919V191.759V195.599C2046.19 195.599 2051.2 197.582 2055.48 201.61L2058.11 198.812ZM2040.26 191.759H2044.1V190.859H2040.26H2036.42V191.759H2040.26ZM2040.26 190.859V187.019H1897.4V190.859V194.699H2040.26V190.859ZM1897.4 190.859V187.019C1876.99 187.019 1859.72 180.49 1845.35 167.456L1842.77 170.3L1840.19 173.144C1856.04 187.522 1875.18 194.699 1897.4 194.699V190.859ZM1842.77 170.3L1845.35 167.456C1831 154.436 1823.95 138.893 1823.95 120.628H1820.11H1816.27C1816.27 141.181 1824.33 158.752 1840.19 173.144L1842.77 170.3ZM1820.11 120.628H1823.95C1823.95 102.47 1831 86.9754 1845.35 73.951L1842.77 71.1069L1840.19 68.2628C1824.33 82.6503 1816.27 100.17 1816.27 120.628H1820.11ZM1842.77 71.1069L1845.36 73.9417C1859.73 60.8113 1877 54.2382 1897.4 54.2382V50.3979V46.5577C1875.17 46.5577 1856.03 53.7906 1840.18 68.2722L1842.77 71.1069ZM2432.96 64.0538L2430.56 67.0551L2430.57 67.0667L2430.59 67.0781L2432.96 64.0538ZM2453.67 97.5184V101.359H2458.23L2457.45 96.864L2453.67 97.5184ZM2209.51 97.5184V93.6781H2205.67V97.5184H2209.51ZM2209.51 144.639H2205.67V148.479H2209.51V144.639ZM2387.49 144.639H2391.33V140.799H2387.49V144.639ZM2372.33 177.953L2374.92 180.792L2374.92 180.792L2372.33 177.953ZM2209.51 191.759V187.919H2205.67V191.759H2209.51ZM2209.51 238.88H2205.67V242.72H2209.51V238.88ZM2453.67 238.88L2457.45 239.529L2458.22 235.039H2453.67V238.88ZM2432.96 272.494L2430.59 269.47L2430.58 269.475L2430.58 269.48L2432.96 272.494ZM2172.59 272.344L2170.01 275.183L2170.02 275.196L2170.04 275.21L2172.59 272.344ZM2157.14 238.88H2153.3V238.909L2153.3 238.938L2157.14 238.88ZM2157.14 97.5184L2153.3 97.4593L2153.3 97.4888V97.5184H2157.14ZM2172.59 64.2039L2170.02 61.3523L2170.01 61.3586L2170.01 61.3649L2172.59 64.2039ZM2209.51 50.3979V54.2382H2392.89V50.3979V46.5577H2209.51V50.3979ZM2392.89 50.3979V54.2382C2407.37 54.2382 2419.87 58.5223 2430.56 67.0551L2432.96 64.0538L2435.35 61.0526C2423.23 51.3775 2409.02 46.5577 2392.89 46.5577V50.3979ZM2432.96 64.0538L2430.59 67.0781C2441.41 75.5473 2447.76 85.8857 2449.88 98.1727L2453.67 97.5184L2457.45 96.864C2454.97 82.5395 2447.51 70.5682 2435.32 61.0296L2432.96 64.0538ZM2453.67 97.5184V93.6781H2209.51V97.5184V101.359H2453.67V97.5184ZM2209.51 97.5184H2205.67V144.639H2209.51H2213.35V97.5184H2209.51ZM2209.51 144.639V148.479H2387.49V144.639V140.799H2209.51V144.639ZM2387.49 144.639H2383.65C2383.65 156.503 2379.1 166.596 2369.74 175.114L2372.33 177.953L2374.92 180.792C2385.77 170.902 2391.33 158.786 2391.33 144.639H2387.49ZM2372.33 177.953L2369.74 175.114C2360.38 183.642 2349.11 187.919 2335.71 187.919V191.759V195.599C2350.93 195.599 2364.07 190.673 2374.92 180.792L2372.33 177.953ZM2335.71 191.759V187.919H2209.51V191.759V195.599H2335.71V191.759ZM2209.51 191.759H2205.67V238.88H2209.51H2213.35V191.759H2209.51ZM2209.51 238.88V242.72H2453.67V238.88V235.039H2209.51V238.88ZM2453.67 238.88L2449.88 238.23C2447.75 250.622 2441.4 261.006 2430.59 269.47L2432.96 272.494L2435.32 275.518C2447.52 265.974 2454.97 253.948 2457.45 239.529L2453.67 238.88ZM2432.96 272.494L2430.58 269.48C2419.89 277.919 2407.38 282.16 2392.89 282.16V286V289.84C2409.01 289.84 2423.22 285.077 2435.34 275.508L2432.96 272.494ZM2392.89 286V282.16H2209.51V286V289.84H2392.89V286ZM2209.51 286V282.16C2195.99 282.16 2184.61 277.919 2175.15 269.479L2172.59 272.344L2170.04 275.21C2180.98 284.977 2194.22 289.84 2209.51 289.84V286ZM2172.59 272.344L2175.18 269.505C2165.82 260.981 2161.16 250.816 2160.98 238.821L2157.14 238.88L2153.3 238.938C2153.51 253.154 2159.16 265.3 2170.01 275.183L2172.59 272.344ZM2157.14 238.88H2160.98V97.5184H2157.14H2153.3V238.88H2157.14ZM2157.14 97.5184L2160.98 97.5774C2161.16 85.6908 2165.81 75.5738 2175.18 67.0429L2172.59 64.2039L2170.01 61.3649C2159.16 71.242 2153.51 83.3346 2153.3 97.4593L2157.14 97.5184ZM2172.59 64.2039L2175.17 67.0556C2184.63 58.5209 2196 54.2382 2209.51 54.2382V50.3979V46.5577C2194.2 46.5577 2180.97 51.479 2170.02 61.3523L2172.59 64.2039ZM2769.1 64.0538L2766.71 67.0551L2766.72 67.0667L2766.73 67.0781L2769.1 64.0538ZM2789.81 97.5184V101.359H2794.37L2793.59 96.864L2789.81 97.5184ZM2545.65 97.5184V93.6781H2541.81V97.5184H2545.65ZM2545.65 238.88H2541.81V242.72H2545.65V238.88ZM2789.81 238.88L2793.6 239.529L2794.37 235.039H2789.81V238.88ZM2769.1 272.494L2766.73 269.47L2766.73 269.475L2766.72 269.48L2769.1 272.494ZM2508.74 272.344L2506.15 275.183L2506.17 275.196L2506.18 275.21L2508.74 272.344ZM2493.28 238.88H2489.44V238.909L2489.44 238.938L2493.28 238.88ZM2493.28 97.5184L2489.44 97.4593L2489.44 97.4888V97.5184H2493.28ZM2508.74 64.2039L2506.17 61.3523L2506.16 61.3586L2506.15 61.3649L2508.74 64.2039ZM2545.65 50.3979V54.2382H2729.03V50.3979V46.5577H2545.65V50.3979ZM2729.03 50.3979V54.2382C2743.52 54.2382 2756.02 58.5223 2766.71 67.0551L2769.1 64.0538L2771.5 61.0526C2759.38 51.3775 2745.17 46.5577 2729.03 46.5577V50.3979ZM2769.1 64.0538L2766.73 67.0781C2777.56 75.5473 2783.9 85.8857 2786.03 98.1727L2789.81 97.5184L2793.59 96.864C2791.12 82.5395 2783.66 70.5682 2771.47 61.0296L2769.1 64.0538ZM2789.81 97.5184V93.6781H2545.65V97.5184V101.359H2789.81V97.5184ZM2545.65 97.5184H2541.81V238.88H2545.65H2549.5V97.5184H2545.65ZM2545.65 238.88V242.72H2789.81V238.88V235.039H2545.65V238.88ZM2789.81 238.88L2786.03 238.23C2783.9 250.622 2777.55 261.006 2766.73 269.47L2769.1 272.494L2771.47 275.518C2783.66 265.974 2791.12 253.948 2793.6 239.529L2789.81 238.88ZM2769.1 272.494L2766.72 269.48C2756.03 277.919 2743.53 282.16 2729.03 282.16V286V289.84C2745.15 289.84 2759.36 285.077 2771.48 275.508L2769.1 272.494ZM2729.03 286V282.16H2545.65V286V289.84H2729.03V286ZM2545.65 286V282.16C2532.14 282.16 2520.76 277.919 2511.3 269.479L2508.74 272.344L2506.18 275.21C2517.13 284.977 2530.36 289.84 2545.65 289.84V286ZM2508.74 272.344L2511.32 269.505C2501.97 260.981 2497.31 250.816 2497.12 238.821L2493.28 238.88L2489.44 238.938C2489.66 253.154 2495.3 265.3 2506.15 275.183L2508.74 272.344ZM2493.28 238.88H2497.12V97.5184H2493.28H2489.44V238.88H2493.28ZM2493.28 97.5184L2497.12 97.5774C2497.3 85.6908 2501.96 75.5738 2511.32 67.0429L2508.74 64.2039L2506.15 61.3649C2495.31 71.242 2489.66 83.3346 2489.44 97.4593L2493.28 97.5184ZM2508.74 64.2039L2511.31 67.0556C2520.77 58.5209 2532.15 54.2382 2545.65 54.2382V50.3979V46.5577C2530.35 46.5577 2517.11 51.479 2506.17 61.3523L2508.74 64.2039Z" fill="#00CDE8" mask="url(#path-5-outside-2_1204_2)"/>
</svg>
