<svg width="75" height="76" viewBox="0 0 75 76" fill="none" xmlns="http://www.w3.org/2000/svg">
<path d="M69 36.5H65.925C65.16 21.98 53.52 10.34 39 9.57498V6.5C39 5.67501 38.325 5 37.5 5C36.675 5 36 5.67501 36 6.5V9.57498C21.48 10.34 9.84 21.98 9.07498 36.5H6C5.17501 36.5 4.5 37.175 4.5 38C4.5 38.825 5.17501 39.5 6 39.5H9.07498C9.84 54.02 21.48 65.66 36 66.425V69.5C36 70.325 36.675 71 37.5 71C38.325 71 39 70.325 39 69.5V66.425C53.52 65.66 65.16 54.02 65.925 39.5H69C69.825 39.5 70.5 38.825 70.5 38C70.5 37.175 69.825 36.5 69 36.5ZM36 12.575V15.575C24.795 16.325 15.825 25.295 15.075 36.5H12.075C12.825 23.63 23.13 13.325 36 12.575ZM36 63.425C23.13 62.675 12.825 52.3699 12.075 39.5H15.075C15.825 50.705 24.795 59.675 36 60.425V63.425ZM37.5 57.5C26.745 57.5 18 48.755 18 38C18 27.245 26.745 18.5 37.5 18.5C48.255 18.5 57 27.2449 57 38C57 48.7551 48.255 57.5 37.5 57.5ZM39 63.425V60.425C50.205 59.675 59.175 50.705 59.925 39.5H62.925C62.175 52.3699 51.87 62.675 39 63.425ZM59.925 36.5C59.175 25.295 50.205 16.325 39 15.575V12.575C51.87 13.325 62.175 23.63 62.925 36.5H59.925Z" fill="#36C3DF"/>
<path d="M52.0648 45.185L49.8148 42.935C49.5298 42.665 49.1548 42.5 48.7498 42.5H46.4998V37.31L50.3248 34.7449C50.7449 34.475 50.9998 33.9949 50.9998 33.5V29C50.9998 28.175 50.3248 27.5 49.4998 27.5C48.6748 27.5 47.9998 28.175 47.9998 29V32.6899L46.3198 33.8149C45.7948 31.91 44.0698 30.5 41.9998 30.5V29C41.9998 26.525 39.9748 24.5 37.4998 24.5C35.0248 24.5 32.9998 26.525 32.9998 29V30.5C30.9298 30.5 29.2048 31.91 28.6798 33.8149L26.9998 32.6899V29C26.9998 28.175 26.3248 27.5 25.4998 27.5C24.6748 27.5 23.9998 28.175 23.9998 29V33.5C23.9998 33.9949 24.2548 34.4749 24.6748 34.7449L28.4998 37.31V42.5H26.2498C25.8448 42.5 25.4698 42.665 25.1848 42.935L22.9348 45.185C22.3499 45.77 22.3499 46.73 22.9348 47.3149C23.5198 47.8849 24.4798 47.8849 25.0648 47.3149L26.8648 45.5H29.0248C30.2698 48.9949 33.5848 51.5 37.4998 51.5C41.4148 51.5 44.7298 48.9949 45.9748 45.5H48.1348C48.1348 45.5 49.9348 47.3 49.9348 47.3149C50.4898 47.855 51.4798 47.9 52.0648 47.3149C52.6497 46.73 52.6498 45.77 52.0648 45.185ZM35.9998 29C35.9998 28.175 36.6748 27.5 37.4998 27.5C38.3248 27.5 38.9998 28.175 38.9998 29V30.5H35.9998V29ZM43.4998 42.5C43.4998 45.8149 40.8148 48.5 37.4998 48.5C34.1848 48.5 31.4998 45.8149 31.4998 42.5V35C31.4998 34.175 32.1748 33.5 32.9998 33.5H41.9998C42.8248 33.5 43.4998 34.175 43.4998 35V42.5Z" fill="#36C3DF"/>
<path d="M73.5 0.5H64.5C63.6716 0.5 63 1.1709 63 2C63 2.8291 63.6716 3.5 64.5 3.5H72V11C72 11.8291 72.6716 12.5 73.5 12.5C74.3284 12.5 75 11.8291 75 11V2C75 1.1709 74.3284 0.5 73.5 0.5Z" fill="#36C3DF"/>
<path d="M1.5 12.5C2.32838 12.5 3 11.8291 3 11V3.5H10.5C11.3284 3.5 12 2.8291 12 2C12 1.1709 11.3284 0.5 10.5 0.5H1.5C0.671625 0.5 0 1.1709 0 2V11C0 11.8291 0.671625 12.5 1.5 12.5Z" fill="#36C3DF"/>
<path d="M73.5 63.5C72.6716 63.5 72 64.1709 72 65V72.5H64.5C63.6716 72.5 63 73.1709 63 74C63 74.8291 63.6716 75.5 64.5 75.5H73.5C74.3284 75.5 75 74.8291 75 74V65C75 64.1709 74.3284 63.5 73.5 63.5Z" fill="#36C3DF"/>
<path d="M10.5 72.5H3V65C3 64.1709 2.32838 63.5 1.5 63.5C0.671625 63.5 0 64.1709 0 65V74C0 74.8291 0.671625 75.5 1.5 75.5H10.5C11.3284 75.5 12 74.8291 12 74C12 73.1709 11.3284 72.5 10.5 72.5Z" fill="#36C3DF"/>
</svg>
