<svg width="61" height="72" viewBox="0 0 61 72" fill="none" xmlns="http://www.w3.org/2000/svg">
<path d="M59.4049 9.8693L46.0631 5.7143C45.774 5.6241 45.4626 5.63666 45.1817 5.74984C44.9008 5.86302 44.6677 6.06986 44.5219 6.3353L35.6276 22.5135C35.5851 22.5903 35.5506 22.6712 35.5249 22.755C35.4725 22.9212 35.4542 23.0962 35.4709 23.2695C35.4789 23.3571 35.496 23.4435 35.5219 23.5275C35.5985 23.7797 35.7493 24.0029 35.9546 24.168C36.0227 24.2232 36.0964 24.2712 36.1744 24.3113L42.7609 27.7185L33.2201 40.5548L36.8659 29.7548C36.9658 29.4595 36.9572 29.1383 36.8418 28.8487C36.7263 28.5591 36.5115 28.3201 36.2359 28.1745L29.8751 24.8145L38.6164 4.93055C38.6907 4.76144 38.7285 4.57855 38.7272 4.39383C38.726 4.20912 38.6857 4.02675 38.6091 3.85866C38.5325 3.69058 38.4213 3.54057 38.2827 3.41845C38.1441 3.29634 37.9813 3.20487 37.8049 3.15005L30.8899 0.997546C30.6358 0.918787 30.3639 0.918787 30.1099 0.997546L1.59486 9.8693C1.3276 9.95259 1.09394 10.1191 0.927993 10.3446C0.762041 10.57 0.672474 10.8426 0.672363 11.1225V33.615C0.698456 40.551 2.66511 47.3413 6.34982 53.2176C10.0345 59.0939 15.2902 63.8218 21.5224 66.8663L29.9299 70.9313C30.108 71.0177 30.3034 71.0626 30.5014 71.0626C30.6993 71.0626 30.8947 71.0177 31.0729 70.9313L39.4811 66.8663C45.7132 63.8217 50.9688 59.0938 54.6535 53.2175C58.3382 47.3412 60.3049 40.551 60.3311 33.615V11.1225C60.3308 10.8421 60.2406 10.5692 60.074 10.3437C59.9073 10.1182 59.6728 9.95193 59.4049 9.8693ZM34.0249 29.9715L28.0789 47.58C28.0536 47.6555 28.035 47.7331 28.0234 47.8118C27.9802 48.1014 28.035 48.397 28.1792 48.6518C28.3233 48.9066 28.5486 49.1059 28.819 49.218C29.0895 49.3301 29.3896 49.3485 29.6718 49.2704C29.9539 49.1923 30.2018 49.022 30.3761 48.7868L45.7886 28.0493C45.9021 27.8965 45.981 27.7209 46.02 27.5346C46.0589 27.3483 46.0569 27.1558 46.0141 26.9703C45.9713 26.7849 45.8887 26.611 45.7721 26.4606C45.6555 26.3102 45.5076 26.1869 45.3386 26.0993L38.5774 22.6013L42.6169 15.2513L50.2024 17.6085V33.615C50.1849 38.6502 48.7577 43.5799 46.0824 47.8455C43.407 52.1111 39.5904 55.5422 35.0651 57.75L30.4999 59.9588L25.9339 57.75C21.4087 55.542 17.5924 52.1109 14.9172 47.8453C12.242 43.5797 10.8148 38.6501 10.7974 33.615V17.6085L30.4999 11.475L32.5856 12.1245L26.9816 24.8745C26.8482 25.1784 26.8348 25.5214 26.944 25.8348C27.0532 26.1481 27.277 26.4085 27.5704 26.5635L34.0249 29.9715ZM57.7024 33.615C57.678 40.0579 55.8513 46.3654 52.4288 51.8242C49.0063 57.2829 44.1246 61.675 38.3359 64.5038L30.4999 68.2928L22.6646 64.5038C16.8757 61.6752 11.9938 57.2831 8.57115 51.8244C5.1485 46.3656 3.3217 40.058 3.29736 33.615V12.09L30.4999 3.6248L35.6216 5.2193L33.6499 9.70805L30.8899 8.85005C30.6359 8.77053 30.3638 8.77053 30.1099 8.85005L9.09486 15.39C8.82747 15.4731 8.59369 15.6396 8.4277 15.8651C8.26171 16.0906 8.17224 16.3633 8.17236 16.6433V33.615C8.19206 39.1424 9.75914 44.5538 12.6961 49.2364C15.6331 53.9189 19.8226 57.6855 24.7901 60.1095L29.9276 62.5988C30.106 62.6852 30.3017 62.73 30.4999 62.73C30.6981 62.73 30.8937 62.6852 31.0721 62.5988L36.2089 60.1095C41.1765 57.6856 45.3662 53.9191 48.3033 49.2365C51.2404 44.554 52.8076 39.1425 52.8274 33.615V16.6425C52.8274 16.3624 52.7379 16.0897 52.5717 15.8642C52.4056 15.6387 52.1716 15.4723 51.9041 15.3893L43.9061 12.9038L46.3061 8.53955L57.7024 12.0885V33.615Z" fill="#36C3DF"/>
</svg>
